{"title":"Henry.of.Navarre.aka.Henri.4.2010.DVDRiP.XViD.OPTIONAL-NORDIC_SU","uid":5877426,"size":1917988546,"categoryP":"video","categoryS":"movies","magnet":"?xt=urn:btih:d47579d29b4e67a69e026c55143542e1affad0a9&amp;dn=Henry.of.Navarre.aka.Henri.4.2010.DVDRiP.XViD.OPTIONAL-NORDIC_SU&amp;tr=udp%3A%2F%2Ftracker.openbittorrent.com%3A80&amp;tr=udp%3A%2F%2Fopen.demonii.com%3A1337&amp;tr=udp%3A%2F%2Ftracker.coppersurfer.tk%3A6969&amp;tr=udp%3A%2F%2Fexodus.desync.com%3A6969","seeders":2,"leechers":0,"uploader":"Zen_Bud","files":-1,"time":1286700544,"description":"\n* Henry.of.Navarre.aka.Henri.4.2010.DVDRiP.XViD.OPTIONAL-NORDIC_SUB-Zen_Bud *\n\nFormat                           : AVI\nFile size                        : 1.77 GiB\nDuration                         : 2h 28mn\nOverall bit rate                 : 1 705 Kbps\n\nVideo\n\nFormat                           : MPEG-4 Visual\nCodec ID/Hint                    : XviD\nDuration                         : 2h 28mn\nBit rate                         : 1 564 Kbps\nWidth                            : 720 pixels\nHeight                           : 436 pixels\nDisplay aspect ratio             : 2.35:1\nStream size                      : 1.62 GiB (92%)\nWriting library                  : XviD 1.1.2 (UTC 2006-11-01)\n\nAudio\nFormat                           : MPEG Audio\nCodec ID/Hint                    : MP3\nDuration                         : 2h 28mn\nBit rate                         : 128 Kbps\nChannel(s)                       : 2 channels\nSampling rate                    : 48.0 KHz\nStream size                      : 136 MiB (8%)\nLanguage                         : French\n\nText #1\n\nLanguage                         : Swedish\n\nText #2\nLanguage                         : Norwegian\n\nText #3\nLanguage                         : Danish\n\nText #4\nLanguage                         : Finnish\n &lt;a href=&quot;\nhttp://www.henri-vier.com/&quot; rel=&quot;nofollow&quot; target=&quot;_NEW&quot;&gt;\nhttp://www.henri-vier.com/&lt;/a&gt;","torrent":{"xt":"urn:btih:d47579d29b4e67a69e026c55143542e1affad0a9","amp;dn":"Henry.of.Navarre.aka.Henri.4.2010.DVDRiP.XViD.OPTIONAL-NORDIC_SU","amp;tr":["udp%3A%2F%2Ftracker.openbittorrent.com%3A80","udp%3A%2F%2Fopen.demonii.com%3A1337","udp%3A%2F%2Ftracker.coppersurfer.tk%3A6969","udp%3A%2F%2Fexodus.desync.com%3A6969"],"infoHash":"d47579d29b4e67a69e026c55143542e1affad0a9","infoHashBuffer":{"type":"Buffer","data":[212,117,121,210,155,78,103,166,158,2,108,85,20,53,66,225,175,250,208,169]},"announce":[],"urlList":[]}}